<?xml version="1.0" encoding="UTF-8"?>
<svg width="51px" height="54px" viewBox="0 0 51 54" version="1.1" xmlns="http://www.w3.org/2000/svg" xmlns:xlink="http://www.w3.org/1999/xlink">
    <title>angular-seeklogo.com</title>
    <g id="Live-website" stroke="none" stroke-width="1" fill="none" fill-rule="evenodd">
        <g id="Tc-Overview" transform="translate(-563.000000, -2930.000000)" fill-rule="nonzero">
            <g id="angular-seeklogo.com" transform="translate(563.000000, 2930.000000)">
                <polygon id="Path" fill="#E23237" points="0 8.95027625 25.1613281 0 51 8.79116022 46.8164062 42.0265193 25.1613281 54 3.84492187 42.1856353"></polygon>
                <polygon id="Path" fill="#B52E31" points="51 8.79116022 25 0 25 54 46.7902853 42.0464088"></polygon>
                <path d="M24.6228288,6 L24.6228288,6 L9,40.9003418 L14.8362283,40.8006836 L17.9727047,32.9276766 L24.64268,32.9276766 L24.6625311,32.9276766 L31.9875931,32.9276766 L35.4218363,40.9003418 L41,41 L24.6228288,6 L24.6228288,6 Z M24.6625311,17.1816629 L29.9429281,28.2636676 L24.8808934,28.2636676 L24.6228288,28.2636676 L20.0173697,28.2636676 L24.6625311,17.1816629 L24.6625311,17.1816629 Z" id="Shape" fill="#FFFFFF"></path>
            </g>
        </g>
    </g>
</svg>