<svg width="133" height="34" viewBox="0 0 133 34" fill="none" xmlns="http://www.w3.org/2000/svg">
<path d="M113.788 27.1254H132.052L113.788 7.57153V27.1254Z" fill="black"/>
<path d="M11.9016 7.68896H14.9712V7.71243H15.015V19.5198C15.0369 21.5856 14.2695 23.5339 12.8882 24.9893C11.5289 26.4917 9.68716 27.2898 7.75774 27.2663C5.80639 27.2898 3.98659 26.4682 2.62722 24.9893C1.22401 23.5574 0.478544 21.5856 0.50047 19.5198V7.71243H3.54809V19.5198C3.54809 20.6936 3.98659 21.8438 4.7759 22.6654C5.54329 23.5104 6.61763 24.0034 7.71389 23.98C10.016 23.98 11.8797 21.9612 11.9016 19.4964V7.68896Z" fill="black"/>
<path d="M32.5772 7.66553V27.2194H30.4066L21.1322 14.1444V27.2194H18.0845V7.66553H20.2551L29.5076 20.6937V7.66553H32.5772Z" fill="black"/>
<path d="M34.7477 7.68896H45.4034V10.9519H41.6103V27.2429H38.5408V10.9519H34.7477V7.68896Z" fill="black"/>
<path d="M59.3041 7.68896H62.3517V19.4964C62.3517 23.7922 59.1287 27.2429 55.1163 27.2429C51.104 27.2429 47.881 23.7922 47.881 19.4964V7.68896H50.9286V19.4964C50.9944 21.8907 52.7923 23.8391 55.0286 23.8861C57.3308 23.933 59.2602 21.9612 59.3041 19.4964V7.68896Z" fill="black"/>
<path d="M66.5174 9.9662C67.8549 8.46386 69.6966 7.66576 71.626 7.68922C75.463 7.68922 78.6641 10.9052 78.8614 14.9896H75.8137C75.6165 12.7127 73.8186 10.9286 71.648 10.9286C69.3458 10.9286 67.4603 12.9474 67.4603 15.4122V19.4732C67.4603 21.7971 69.1046 23.722 71.2533 23.9333C73.5554 24.1915 75.5945 22.3605 75.8137 19.8957H78.8833C78.7298 24.0976 75.4849 27.384 71.5822 27.337C67.5699 27.2901 64.3688 23.7924 64.4126 19.4967V15.4357C64.3688 13.3699 65.1361 11.4216 66.5174 9.9662Z" fill="black"/>
<path d="M84.3427 7.68896H81.2951V27.2429H84.3427V7.68896Z" fill="black"/>
<path d="M95.744 24.919V27.1725H93.5729L84.4524 17.4073L93.5729 7.64209H95.744V9.94254L88.7497 17.4308L95.744 24.919Z" fill="black"/>
<path d="M100.874 7.68896H98.7911V10.4354H100.874V7.68896Z" fill="black"/>
<path d="M100.874 12.196H98.7911V27.2429H100.874V12.196Z" fill="black"/>
<path d="M104.865 12.1725H102.518C102.518 12.1725 102.518 14.1209 102.541 14.1444H104.887V23.7218C104.887 25.764 106.29 27.2663 108.175 27.2663H110.609V25.2945H108.723C107.606 25.2945 106.947 24.5433 106.947 23.3696V14.1209H110.587V12.196H106.947V7.66553H104.865V12.1725Z" fill="black"/>
</svg>
