<svg width="161" height="29" viewBox="0 0 161 29" fill="none" xmlns="http://www.w3.org/2000/svg">
<path fill-rule="evenodd" clip-rule="evenodd" d="M43.0819 20.2633H40.2884V8.56585H37.495V6.20825H45.8753V8.56585H43.0819V20.2633Z" fill="#30364B"/>
<path fill-rule="evenodd" clip-rule="evenodd" d="M46.9569 15.6959C46.9569 16.9654 47.7679 18.2349 49.1195 18.2349C50.4712 18.2349 51.2822 16.8747 51.2822 15.6959C51.2822 14.4264 50.4712 13.1569 49.1195 13.1569C47.7679 13.0663 46.9569 14.4264 46.9569 15.6959ZM53.8954 15.6959C53.8954 18.5069 52.0031 20.5925 49.1195 20.5925C46.236 20.5925 44.3436 18.5976 44.3436 15.6959C44.3436 12.7942 46.3261 10.7993 49.1195 10.7993C52.0031 10.7993 53.8954 12.7942 53.8954 15.6959Z" fill="#30364B"/>
<path fill-rule="evenodd" clip-rule="evenodd" d="M57.1393 15.6959C57.1393 16.9654 57.9503 18.2349 59.3019 18.2349C60.6536 18.2349 61.4646 16.8747 61.4646 15.6959C61.4646 14.4264 60.6536 13.1569 59.3019 13.1569C57.9503 13.0663 57.1393 14.4264 57.1393 15.6959ZM64.0778 15.6959C64.0778 18.5069 62.1855 20.5925 59.3019 20.5925C56.4184 20.5925 54.5261 18.5976 54.5261 15.6959C54.5261 12.7942 56.5085 10.7993 59.3019 10.7993C62.1855 10.7993 64.0778 12.7942 64.0778 15.6959Z" fill="#30364B"/>
<path fill-rule="evenodd" clip-rule="evenodd" d="M81.6779 12.7035V13.0662C81.6779 17.0561 79.6955 20.5925 75.28 20.5925C71.225 20.5925 68.6118 17.1467 68.6118 13.2476C68.6118 9.25777 71.225 5.81201 75.4603 5.81201C77.8032 5.81201 79.9658 6.99082 80.957 9.16709L78.524 10.4366C77.9834 9.16709 76.8119 8.16964 75.3702 8.16964C72.7569 8.16964 71.4053 10.89 71.4053 13.2476C71.4053 15.6052 72.7569 18.1442 75.3702 18.1442C77.0823 18.1442 78.524 16.6027 78.524 14.9705H75.6405V12.7035H81.6779Z" fill="#30364B"/>
<path fill-rule="evenodd" clip-rule="evenodd" d="M84.9219 15.6046C84.9219 16.8741 85.7329 18.1436 87.0845 18.1436C88.4362 18.1436 89.2472 16.7834 89.2472 15.6046C89.2472 14.3351 88.4362 13.0656 87.0845 13.0656C85.7329 12.975 84.9219 14.3351 84.9219 15.6046ZM91.8604 15.6046C91.8604 18.4156 89.9681 20.5012 87.0845 20.5012C84.201 20.5012 82.3086 18.5063 82.3086 15.6046C82.3086 12.7029 84.2911 10.708 87.0845 10.708C89.9681 10.708 91.8604 12.7029 91.8604 15.6046Z" fill="#30364B"/>
<path fill-rule="evenodd" clip-rule="evenodd" d="M95.105 15.6046C95.105 16.8741 95.916 18.1436 97.2676 18.1436C98.6193 18.1436 99.4303 16.7834 99.4303 15.6046C99.4303 14.3351 98.6193 13.0656 97.2676 13.0656C95.916 12.975 95.105 14.3351 95.105 15.6046ZM102.044 15.6046C102.044 18.4156 100.151 20.5012 97.2676 20.5012C94.3841 20.5012 92.4917 18.5063 92.4917 15.6046C92.4917 12.7029 94.4742 10.708 97.2676 10.708C100.151 10.708 102.044 12.7029 102.044 15.6046Z" fill="#30364B"/>
<path fill-rule="evenodd" clip-rule="evenodd" d="M109.613 15.605C109.613 14.3355 108.802 13.0661 107.45 13.0661C106.098 13.0661 105.287 14.4262 105.287 15.605C105.287 16.8745 106.098 18.144 107.45 18.144C108.802 18.144 109.613 16.7838 109.613 15.605ZM109.342 19.3228C108.802 20.0483 107.81 20.5016 106.819 20.5016C104.116 20.5016 102.584 18.0533 102.584 15.605C102.584 13.1567 104.116 10.7991 106.729 10.7991C107.72 10.7991 108.621 11.2525 109.252 11.9779V4.45166H111.865V20.3203H109.252V19.3228H109.342Z" fill="#30364B"/>
<path fill-rule="evenodd" clip-rule="evenodd" d="M121.896 20.2306H119.193V8.53316H116.399V6.17554H124.78V8.53316H121.896V20.2306Z" fill="#30364B"/>
<path fill-rule="evenodd" clip-rule="evenodd" d="M125.861 15.6957C125.861 16.9652 126.672 18.2347 128.024 18.2347C129.375 18.2347 130.186 16.8745 130.186 15.6957C130.186 14.4262 129.375 13.1567 128.024 13.1567C126.672 13.066 125.861 14.4262 125.861 15.6957ZM132.8 15.6957C132.8 18.5067 130.907 20.5923 128.024 20.5923C125.14 20.5923 123.248 18.5974 123.248 15.6957C123.248 12.794 125.23 10.7991 128.024 10.7991C130.817 10.7991 132.8 12.794 132.8 15.6957Z" fill="#30364B"/>
<path fill-rule="evenodd" clip-rule="evenodd" d="M150.4 12.7038V13.0665C150.4 17.0563 148.417 20.5927 144.002 20.5927C139.947 20.5927 137.334 17.147 137.334 13.2478C137.334 9.25802 139.947 5.81226 144.182 5.81226C146.525 5.81226 148.688 6.99107 149.679 9.16734L147.246 10.4368C146.705 9.16734 145.534 8.16988 144.092 8.16988C141.479 8.16988 140.127 10.8902 140.127 13.2478C140.127 15.6055 141.479 18.1444 144.092 18.1444C145.804 18.1444 147.246 16.6029 147.246 14.9707H144.272V12.7038H150.4Z" fill="#30364B"/>
<path fill-rule="evenodd" clip-rule="evenodd" d="M153.734 15.6061C153.734 16.8756 154.545 18.1451 155.896 18.1451C157.248 18.1451 158.059 16.7849 158.059 15.6061C158.059 14.3366 157.248 13.0671 155.896 13.0671C154.545 13.0671 153.734 14.3366 153.734 15.6061ZM160.672 15.6061C160.672 18.4171 158.78 20.5027 155.896 20.5027C153.013 20.5027 151.12 18.5078 151.12 15.6061C151.12 12.7044 153.103 10.7095 155.896 10.7095C158.69 10.7095 160.672 12.7044 160.672 15.6061Z" fill="#30364B"/>
<path opacity="0.4" fill-rule="evenodd" clip-rule="evenodd" d="M29.2073 21.583C24.171 27.4956 17.2623 29.9646 13.7757 27.0408C10.289 24.117 11.5158 17.0349 16.5521 11.1223C21.5883 5.20968 28.4971 2.74068 31.9837 5.66449C35.4703 8.52333 34.2436 15.6704 29.2073 21.583Z" fill="#30364B"/>
<path opacity="0.6" fill-rule="evenodd" clip-rule="evenodd" d="M25.85 14.3057C25.85 22.0376 22.1696 28.2751 17.5853 28.2751C13.0011 28.2751 9.32071 22.0376 9.32071 14.3057C9.32071 6.57389 13.0011 0.336426 17.5853 0.336426C22.1696 0.336426 25.85 6.57389 25.85 14.3057Z" fill="#30364B"/>
<path fill-rule="evenodd" clip-rule="evenodd" d="M17.8436 11.1223C22.8798 17.0349 24.1066 24.182 20.62 27.1058C17.1333 30.0296 10.2246 27.5606 5.18833 21.648C0.152067 15.7354 -1.07472 8.5883 2.41193 5.66449C5.89857 2.74068 12.8073 5.20968 17.8436 11.1223Z" fill="#30364B"/>
</svg>
