<svg width="137" height="41" viewBox="0 0 137 41" fill="none" xmlns="http://www.w3.org/2000/svg">
<path d="M32.9533 4H5.73516C4.50496 4 3.4798 5.04488 3.4798 6.29874V33.8836C3.4798 35.1374 4.50496 36.1823 5.73516 36.1823H32.9533C34.1835 36.1823 35.2087 35.1374 35.2087 33.8836V6.29874C35.2087 4.99264 34.1835 4 32.9533 4ZM23.368 28.189C20.6001 31.0101 16.1919 31.1146 13.2701 28.5547L13.2189 28.5024C13.0651 28.3457 13.0138 28.0322 13.2189 27.8233L23.0605 17.8447C23.2655 17.6879 23.5218 17.6879 23.7268 17.8447C26.2898 20.8748 26.1872 25.3678 23.368 28.189ZM25.4184 12.2545L15.5768 22.2332C15.3717 22.3899 15.1154 22.3899 14.9104 22.2332C12.3475 19.2552 12.45 14.7623 15.218 11.9411C17.9859 9.11991 22.3941 9.01542 25.3158 11.5754C25.3158 11.5754 25.3671 11.5754 25.3671 11.6276C25.6234 11.7844 25.6234 12.0978 25.4184 12.2545Z" fill="black"/>
<path fill-rule="evenodd" clip-rule="evenodd" d="M52.4718 15.6578C50.6625 14.9065 49.5232 14.4284 49.5232 13.3356C49.5232 12.4476 50.1934 11.628 51.7347 11.628C52.6728 11.628 53.477 12.0378 54.0801 12.8575C54.4822 13.3356 54.8843 13.6088 55.3534 13.6088C56.2915 13.6088 57.0287 12.8575 57.0287 11.9695C57.0287 11.628 56.9617 11.2865 56.7606 11.0816C55.7554 9.51068 53.678 8.41785 51.7347 8.41785C49.0541 8.41785 46.3066 10.1254 46.3066 13.4039C46.3066 16.7507 48.9871 17.8435 51.1986 18.6631C52.9409 19.3461 54.4822 19.9608 54.4822 21.3952C54.4822 22.488 53.477 23.5808 51.6006 23.5808C50.9975 23.5808 49.9253 23.4442 49.1882 22.5563C48.7861 22.0782 48.317 21.8733 47.9149 21.8733C47.0437 21.8733 46.2396 22.6246 46.2396 23.5125C46.2396 23.854 46.3736 24.1955 46.5747 24.4687C47.5799 26.0397 49.8583 26.791 51.6006 26.791C54.5492 26.791 57.7658 24.8785 57.7658 21.3952C57.6988 17.7069 54.8173 16.5457 52.4718 15.6578ZM118.949 8.34955H118.882C115.665 8.34955 113.119 10.945 113.119 14.1552V34.3725C113.119 35.2604 113.856 36.0117 114.727 36.0117C115.598 36.0117 116.335 35.2604 116.335 34.3725V25.9714C116.938 26.5178 117.944 26.791 118.882 26.791H118.949C122.165 26.791 124.578 23.9906 124.578 20.7804V14.0186C124.578 10.8084 122.165 8.34955 118.949 8.34955ZM121.495 20.9171C121.495 22.6929 120.356 23.4442 119.016 23.4442H118.949C117.541 23.4442 116.469 22.6929 116.469 20.9171V14.1552C116.469 12.7892 117.608 11.628 118.949 11.628H119.016C120.423 11.628 121.495 12.7209 121.495 14.1552V20.9171ZM89.262 8.34955H89.1949C87.5866 8.34955 86.1794 9.03257 85.1742 10.0571C84.169 9.03257 82.6947 8.34955 81.1534 8.34955H81.0864C78.0038 8.34955 75.4573 10.8767 75.4573 14.0869V25.2201C75.5243 26.108 76.1944 26.791 77.0656 26.791C77.9368 26.791 78.6069 26.108 78.6739 25.2201V14.0869C78.6739 12.7209 79.7461 11.628 81.0864 11.628H81.1534C82.4936 11.628 83.4988 12.6526 83.5659 14.0186V25.2201C83.6469 26.0274 84.2045 26.791 85.1072 26.791C85.9783 26.791 86.6484 26.108 86.7155 25.2201V13.9503C86.7825 12.6526 87.8547 11.5597 89.1279 11.5597H89.1949C90.5352 11.5597 91.6074 12.6526 91.6074 14.0186V25.2201C91.6744 26.108 92.3446 26.791 93.2157 26.791C94.0869 26.791 94.757 26.108 94.824 25.2201V14.0869C94.8911 10.945 92.3446 8.34955 89.262 8.34955ZM70.2303 8.34955C69.3591 8.34955 68.689 9.03257 68.6219 9.92049V21.0537C68.6219 22.4197 67.5497 23.5125 66.1425 23.5125H66.0754C64.7352 23.5125 63.596 22.4197 63.596 21.0537V9.85219C63.529 8.96427 62.8588 8.28125 61.9877 8.28125C61.1165 8.28125 60.4464 8.96427 60.3793 9.85219V20.9854C60.3793 24.1272 62.9258 26.7227 66.0754 26.7227H66.1425C69.2921 26.7227 71.8386 24.1272 71.8386 20.9854V9.92049C71.8386 9.03257 71.1014 8.34955 70.2303 8.34955ZM108.294 8.34955C107.422 8.34955 106.752 9.03257 106.685 9.92049V21.0537C106.685 22.4197 105.613 23.5125 104.206 23.5125H104.139C102.799 23.5125 101.659 22.4197 101.659 21.0537V9.85219C101.592 8.96427 100.922 8.28125 100.051 8.28125C99.1799 8.28125 98.5098 8.96427 98.4427 9.85219V20.9854C98.4427 24.1272 100.989 26.7227 104.139 26.7227H104.206C107.355 26.7227 109.902 24.1272 109.902 20.9854V9.92049C109.835 9.03257 109.165 8.34955 108.294 8.34955Z" fill="black"/>
<path d="M132.418 11.7644C132.82 11.6961 133.088 11.3546 133.088 10.9448C133.088 10.3984 132.686 10.0569 132.083 10.0569H131.279C131.078 10.0569 130.944 10.1935 130.944 10.3984V12.6524C130.944 12.8573 131.078 12.9939 131.279 12.9939C131.48 12.9939 131.614 12.8573 131.614 12.6524V11.8327L132.418 12.8573C132.485 12.9939 132.552 12.9939 132.753 12.9939C133.021 12.9939 133.088 12.789 133.088 12.6524C133.088 12.5158 133.021 12.4475 132.954 12.3792L132.418 11.7644ZM132.15 11.2863H131.748V10.6033H132.15C132.351 10.6033 132.485 10.7399 132.485 10.9448C132.485 11.0814 132.351 11.2863 132.15 11.2863ZM132.083 8.34937C130.34 8.34937 128.866 9.7837 128.866 11.6278C128.866 13.4037 130.273 14.9063 132.083 14.9063C133.825 14.9063 135.299 13.472 135.299 11.6278C135.299 9.852 133.892 8.34937 132.083 8.34937ZM132.083 14.0867C130.743 14.0867 129.67 12.9939 129.67 11.6278C129.67 10.2618 130.743 9.16898 132.083 9.16898C133.423 9.16898 134.495 10.2618 134.495 11.6278C134.495 12.9939 133.423 14.0867 132.083 14.0867Z" fill="black"/>
</svg>
