<?xml version="1.0" encoding="UTF-8"?>
<svg width="40px" height="52px" viewBox="0 0 40 52" version="1.1" xmlns="http://www.w3.org/2000/svg" xmlns:xlink="http://www.w3.org/1999/xlink">
    <title>django</title>
    <defs>
        <filter id="filter-1">
            <feColorMatrix in="SourceGraphic" type="matrix" values="0 0 0 0 0.000000 0 0 0 0 0.000000 0 0 0 0 0.000000 0 0 0 1.000000 0"></feColorMatrix>
        </filter>
    </defs>
    <g id="Live-website" stroke="none" stroke-width="1" fill="none" fill-rule="evenodd">
        <g id="django" transform="translate(-761.000000, -2266.000000)" filter="url(#filter-1)">
            <g transform="translate(761.000000, 2266.000000)">
                <path d="M8.92677908,26.2604135 C8.89849542,31.3523916 12.8430631,34.3879374 19.1377737,33.0077892 L19.1377737,19.5130378 C12.7634948,17.6755651 8.95344184,21.3930229 8.92677908,26.2604135 M19.3303368,0 L28,0 L28,38.8434167 C19.68983,40.1294152 11.7307475,40.9450821 6.03689136,37.9314696 C-1.2944626,34.0515345 -1.88384548,21.7218538 3.91746755,16.2303875 C6.85882366,13.4464188 12.7803075,11.4864591 19.1377737,12.7654696 L19.1377737,0.547206734 C19.1211644,0.288256586 19.1057823,0.0304742234 19.3303368,0" id="path2838" fill="#FFFFFF"></path>
                <polygon id="path2840" fill="#FFFFFF" points="40 8 32 8 32 0 40 0 40 8"></polygon>
                <path d="M40,12 C39.9909168,18.3054534 39.992249,22.8363986 39.9916738,30.4966789 C39.6518119,38.0246985 39.7309112,44.0194435 37.1556437,47.6215171 C36.6477432,48.3318467 35.5691171,49.3680707 34.6666669,50.0954141 C33.9087892,50.7060847 32.4643766,51.9444527 31.6444312,51.9983266 C30.817863,52.0526413 28.6942942,50.7700892 27.7331818,50.2855997 C26.4711889,49.6494052 25.3045699,48.8045852 24,48.3828882 C27.04305,46.3645214 29.9316868,44.8513005 31.1109847,40.7714198 C32.1366257,37.2232266 32,32.0815978 32,27.0708233 C32,22.1230357 32.0206245,16.3707364 32.0206245,12.0022296 L40,12 L40,12 Z" id="path2860" fill="#FFFFFF"></path>
            </g>
        </g>
    </g>
</svg>