<?xml version="1.0" encoding="UTF-8"?>
<svg width="46px" height="46px" viewBox="0 0 46 46" version="1.1" xmlns="http://www.w3.org/2000/svg" xmlns:xlink="http://www.w3.org/1999/xlink">
    <title>js</title>
    <g id="Live-website" stroke="none" stroke-width="1" fill="none" fill-rule="evenodd">
        <g id="Tc-Overview" transform="translate(-758.000000, -1737.000000)" fill-rule="nonzero">
            <g id="js" transform="translate(758.000000, 1737.000000)">
                <rect id="Rectangle" fill="#F7DF1E" x="0" y="0" width="46" height="46"></rect>
                <path d="M31.2126978,36.3960446 C32.1601917,37.9423658 33.3929045,39.0789715 35.5731111,39.0789715 C37.404634,39.0789715 38.5746285,38.1640151 38.5746285,36.8997931 C38.5746285,35.3848163 37.3725282,34.8482309 35.3565837,33.9668578 L34.2515475,33.4929611 C31.0618753,32.1347061 28.9428936,30.4331558 28.9428936,26.8360189 C28.9428936,23.5224736 31.4687974,21 35.4163154,21 C38.2266914,21 40.2471158,21.9776451 41.7030757,24.5374334 L38.2610371,26.7464636 C37.5031913,25.3882086 36.6856138,24.8531158 35.4163154,24.8531158 C34.1216311,24.8531158 33.301067,25.6740391 33.301067,26.7464636 C33.301067,28.0718817 34.1223777,28.608467 36.0188588,29.4293904 L37.1238951,29.9025408 C40.879525,31.5122969 43,33.1533973 43,36.8430747 C43,40.8208216 39.8737927,43 35.6754016,43 C31.5703413,43 28.9182543,41.0447098 27.6205833,38.4819363 L31.2126978,36.3960446 Z M15.5980876,36.7788934 C16.2924685,38.0102785 16.9241311,39.0513586 18.4428093,39.0513586 C19.895036,39.0513586 20.8111708,38.4834289 20.8111708,36.275145 L20.8111708,21.2522474 L25.2313158,21.2522474 L25.2313158,36.3348485 C25.2313158,40.9096306 22.5478697,42.9917908 18.6309641,42.9917908 C15.0918616,42.9917908 13.042318,41.1611317 12,38.9562061 L15.5980876,36.7788934 Z" id="Shape" fill="#000000"></path>
            </g>
        </g>
    </g>
</svg>