<svg xmlns="http://www.w3.org/2000/svg" xmlns:xlink="http://www.w3.org/1999/xlink" width="180" zoomAndPan="magnify" viewBox="0 0 135 44.999999" height="60" preserveAspectRatio="xMidYMid meet" version="1.0"><defs><g/><clipPath id="e9fbd52ec6"><path d="M 51.195312 20.058594 L 55.695312 20.058594 L 55.695312 24.558594 L 51.195312 24.558594 Z M 51.195312 20.058594 " clip-rule="nonzero"/></clipPath></defs><g clip-path="url(#e9fbd52ec6)"><path fill="#00b3b0" d="M 52.09375 23.746094 L 52.144531 23.796875 L 52.152344 23.800781 C 52.308594 23.964844 52.308594 24.230469 52.144531 24.390625 C 51.984375 24.554688 51.71875 24.554688 51.554688 24.398438 L 51.550781 24.390625 L 51.5 24.34375 L 51.359375 24.203125 C 51.195312 24.039062 51.195312 23.769531 51.359375 23.605469 C 51.523438 23.441406 51.792969 23.441406 51.957031 23.605469 Z M 54.90625 21.441406 L 55.53125 20.816406 C 55.691406 20.652344 55.691406 20.386719 55.53125 20.222656 C 55.367188 20.058594 55.097656 20.058594 54.933594 20.222656 L 54.011719 21.144531 C 53.847656 21.308594 53.847656 21.574219 54.011719 21.738281 L 54.308594 22.039062 L 54.363281 22.089844 L 54.9375 22.664062 C 55.101562 22.828125 55.371094 22.828125 55.535156 22.664062 C 55.695312 22.503906 55.695312 22.234375 55.535156 22.070312 L 54.957031 21.496094 Z M 51.382812 20.226562 C 51.546875 20.0625 51.816406 20.0625 51.980469 20.226562 L 55.527344 23.769531 C 55.691406 23.933594 55.691406 24.203125 55.527344 24.367188 C 55.363281 24.53125 55.09375 24.53125 54.929688 24.367188 L 51.382812 20.820312 C 51.222656 20.65625 51.222656 20.390625 51.382812 20.226562 Z M 51.378906 21.921875 C 51.542969 21.757812 51.8125 21.757812 51.976562 21.921875 L 52.378906 22.328125 L 53.253906 23.199219 L 53.828125 23.777344 C 53.992188 23.9375 53.992188 24.207031 53.828125 24.371094 C 53.664062 24.535156 53.394531 24.535156 53.234375 24.371094 L 52.65625 23.796875 L 51.785156 22.921875 L 51.378906 22.519531 C 51.214844 22.355469 51.214844 22.085938 51.378906 21.921875 Z M 51.378906 21.921875 " fill-opacity="1" fill-rule="evenodd"/></g><g fill="#1b243f" fill-opacity="1"><g transform="translate(56.604099, 23.833491)"><g><path d="M 1.28125 0.046875 C 1.0625 0.046875 0.867188 0.0078125 0.703125 -0.0625 C 0.546875 -0.132812 0.421875 -0.238281 0.328125 -0.375 C 0.234375 -0.507812 0.179688 -0.675781 0.171875 -0.875 L 0.75 -0.875 C 0.75 -0.738281 0.796875 -0.625 0.890625 -0.53125 C 0.984375 -0.4375 1.113281 -0.390625 1.28125 -0.390625 C 1.414062 -0.390625 1.523438 -0.421875 1.609375 -0.484375 C 1.691406 -0.554688 1.734375 -0.648438 1.734375 -0.765625 C 1.734375 -0.890625 1.695312 -0.984375 1.625 -1.046875 C 1.550781 -1.117188 1.453125 -1.175781 1.328125 -1.21875 C 1.210938 -1.257812 1.082031 -1.300781 0.9375 -1.34375 C 0.71875 -1.425781 0.546875 -1.523438 0.421875 -1.640625 C 0.304688 -1.765625 0.25 -1.929688 0.25 -2.140625 C 0.25 -2.304688 0.289062 -2.453125 0.375 -2.578125 C 0.457031 -2.703125 0.570312 -2.796875 0.71875 -2.859375 C 0.863281 -2.929688 1.035156 -2.96875 1.234375 -2.96875 C 1.421875 -2.96875 1.585938 -2.929688 1.734375 -2.859375 C 1.890625 -2.796875 2.007812 -2.703125 2.09375 -2.578125 C 2.175781 -2.453125 2.222656 -2.300781 2.234375 -2.125 L 1.65625 -2.125 C 1.65625 -2.226562 1.613281 -2.316406 1.53125 -2.390625 C 1.457031 -2.472656 1.351562 -2.515625 1.21875 -2.515625 C 1.101562 -2.523438 1.003906 -2.5 0.921875 -2.4375 C 0.847656 -2.375 0.8125 -2.285156 0.8125 -2.171875 C 0.8125 -2.078125 0.84375 -2 0.90625 -1.9375 C 0.96875 -1.882812 1.050781 -1.835938 1.15625 -1.796875 C 1.257812 -1.753906 1.378906 -1.710938 1.515625 -1.671875 C 1.660156 -1.617188 1.789062 -1.554688 1.90625 -1.484375 C 2.03125 -1.421875 2.128906 -1.332031 2.203125 -1.21875 C 2.273438 -1.113281 2.3125 -0.976562 2.3125 -0.8125 C 2.3125 -0.65625 2.269531 -0.507812 2.1875 -0.375 C 2.113281 -0.25 2 -0.144531 1.84375 -0.0625 C 1.6875 0.0078125 1.5 0.046875 1.28125 0.046875 Z M 1.28125 0.046875 "/></g></g></g><g fill="#1b243f" fill-opacity="1"><g transform="translate(59.742572, 23.833491)"><g><path d="M 0.28125 0 L 0.28125 -2.921875 L 0.8125 -2.921875 L 2.1875 -0.859375 L 2.1875 -2.921875 L 2.71875 -2.921875 L 2.71875 0 L 2.1875 0 L 0.8125 -2.046875 L 0.8125 0 Z M 0.28125 0 "/></g></g></g><g fill="#1b243f" fill-opacity="1"><g transform="translate(63.398538, 23.833491)"><g><path d="M 0.09375 0 L 1.15625 -2.921875 L 1.765625 -2.921875 L 2.828125 0 L 2.265625 0 L 2.03125 -0.671875 L 0.890625 -0.671875 L 0.65625 0 Z M 1.03125 -1.09375 L 1.890625 -1.09375 L 1.453125 -2.3125 Z M 1.03125 -1.09375 "/></g></g></g><g fill="#1b243f" fill-opacity="1"><g transform="translate(66.971037, 23.833491)"><g><path d="M 0.203125 0 L 0.203125 -0.40625 L 1.546875 -2.46875 L 0.203125 -2.46875 L 0.203125 -2.921875 L 2.15625 -2.921875 L 2.15625 -2.515625 L 0.8125 -0.453125 L 2.171875 -0.453125 L 2.171875 0 Z M 0.203125 0 "/></g></g></g><g fill="#1b243f" fill-opacity="1"><g transform="translate(69.980137, 23.833491)"><g><path d="M 0.203125 0 L 0.203125 -0.40625 L 1.546875 -2.46875 L 0.203125 -2.46875 L 0.203125 -2.921875 L 2.15625 -2.921875 L 2.15625 -2.515625 L 0.8125 -0.453125 L 2.171875 -0.453125 L 2.171875 0 Z M 0.203125 0 "/></g></g></g><g fill="#1b243f" fill-opacity="1"><g transform="translate(72.989236, 23.833491)"><g><path d="M 1.03125 0 L 1.03125 -1.03125 L 0.0625 -2.921875 L 0.65625 -2.921875 L 1.3125 -1.578125 L 1.953125 -2.921875 L 2.546875 -2.921875 L 1.578125 -1.03125 L 1.578125 0 Z M 1.03125 0 "/></g></g></g><g fill="#1b243f" fill-opacity="1"><g transform="translate(76.243785, 23.833491)"><g><path d="M 0.90625 0 L 0.109375 -2.921875 L 0.484375 -2.921875 L 1.109375 -0.40625 L 1.828125 -2.921875 L 2.21875 -2.921875 L 2.921875 -0.40625 L 3.546875 -2.921875 L 3.9375 -2.921875 L 3.109375 0 L 2.71875 0 L 2.015625 -2.40625 L 1.296875 0 Z M 0.90625 0 "/></g></g></g><g fill="#1b243f" fill-opacity="1"><g transform="translate(80.92639, 23.833491)"><g><path d="M 0.3125 0 L 0.3125 -2.921875 L 2.109375 -2.921875 L 2.109375 -2.625 L 0.65625 -2.625 L 0.65625 -1.609375 L 1.984375 -1.609375 L 1.984375 -1.328125 L 0.65625 -1.328125 L 0.65625 -0.28125 L 2.109375 -0.28125 L 2.109375 0 Z M 0.3125 0 "/></g></g></g><g fill="#1b243f" fill-opacity="1"><g transform="translate(83.927143, 23.833491)"><g><path d="M 0.3125 0 L 0.3125 -2.921875 L 1.328125 -2.921875 C 1.535156 -2.921875 1.707031 -2.882812 1.84375 -2.8125 C 1.976562 -2.75 2.078125 -2.660156 2.140625 -2.546875 C 2.210938 -2.441406 2.25 -2.316406 2.25 -2.171875 C 2.25 -1.984375 2.195312 -1.832031 2.09375 -1.71875 C 1.988281 -1.613281 1.867188 -1.539062 1.734375 -1.5 C 1.835938 -1.488281 1.929688 -1.445312 2.015625 -1.375 C 2.109375 -1.3125 2.179688 -1.226562 2.234375 -1.125 C 2.285156 -1.019531 2.3125 -0.910156 2.3125 -0.796875 C 2.3125 -0.648438 2.273438 -0.515625 2.203125 -0.390625 C 2.128906 -0.273438 2.019531 -0.179688 1.875 -0.109375 C 1.738281 -0.0351562 1.570312 0 1.375 0 Z M 0.65625 -1.640625 L 1.3125 -1.640625 C 1.5 -1.640625 1.640625 -1.679688 1.734375 -1.765625 C 1.835938 -1.859375 1.890625 -1.984375 1.890625 -2.140625 C 1.890625 -2.285156 1.835938 -2.398438 1.734375 -2.484375 C 1.640625 -2.578125 1.492188 -2.625 1.296875 -2.625 L 0.65625 -2.625 Z M 0.65625 -0.296875 L 1.328125 -0.296875 C 1.523438 -0.296875 1.675781 -0.34375 1.78125 -0.4375 C 1.894531 -0.53125 1.953125 -0.660156 1.953125 -0.828125 C 1.953125 -0.984375 1.894531 -1.109375 1.78125 -1.203125 C 1.664062 -1.304688 1.515625 -1.359375 1.328125 -1.359375 L 0.65625 -1.359375 Z M 0.65625 -0.296875 "/></g></g></g></svg>