<svg xmlns="http://www.w3.org/2000/svg" xmlns:xlink="http://www.w3.org/1999/xlink" width="500" zoomAndPan="magnify" viewBox="0 0 375 374.999991" height="500" preserveAspectRatio="xMidYMid meet" version="1.0"><defs><g/><clipPath id="0fa8fcc0b7"><path d="M 51.636719 170.222656 L 86 170.222656 L 86 204.722656 L 51.636719 204.722656 Z M 51.636719 170.222656 " clip-rule="nonzero"/></clipPath></defs><g clip-path="url(#0fa8fcc0b7)"><path fill="#00b3b0" d="M 58.523438 198.511719 L 58.914062 198.898438 L 58.953125 198.9375 C 60.167969 200.199219 60.15625 202.226562 58.914062 203.46875 C 57.671875 204.710938 55.644531 204.722656 54.386719 203.507812 L 54.347656 203.46875 L 53.957031 203.082031 L 52.890625 202.011719 C 51.636719 200.757812 51.636719 198.703125 52.890625 197.445312 C 54.148438 196.191406 56.203125 196.191406 57.457031 197.445312 Z M 80.0625 180.839844 L 80.4375 180.464844 L 80.871094 180.027344 L 84.851562 176.046875 C 86.109375 174.792969 86.109375 172.738281 84.851562 171.480469 C 83.59375 170.222656 81.542969 170.222656 80.285156 171.480469 L 75.871094 175.894531 L 75.496094 176.273438 L 73.210938 178.558594 C 71.957031 179.8125 71.957031 181.867188 73.210938 183.125 L 75.496094 185.410156 L 75.902344 185.8125 L 80.316406 190.230469 C 81.570312 191.484375 83.625 191.484375 84.882812 190.230469 C 86.136719 188.972656 86.136719 186.914062 84.882812 185.660156 Z M 53.074219 171.507812 L 53.074219 171.503906 C 54.328125 170.25 56.386719 170.25 57.640625 171.503906 L 84.824219 198.699219 C 86.082031 199.957031 86.082031 202.011719 84.824219 203.269531 C 83.566406 204.523438 81.515625 204.523438 80.257812 203.269531 L 53.074219 176.074219 C 51.820312 174.816406 51.820312 172.765625 53.074219 171.507812 Z M 53.035156 184.527344 C 54.289062 183.273438 56.34375 183.273438 57.601562 184.527344 L 60.695312 187.625 L 71.808594 198.738281 C 73.0625 199.996094 73.0625 202.050781 71.808594 203.308594 C 70.550781 204.5625 68.496094 204.5625 67.242188 203.308594 L 62.828125 198.890625 L 56.128906 192.191406 L 53.035156 189.09375 C 51.78125 187.839844 51.78125 185.78125 53.035156 184.527344 Z M 53.035156 184.527344 " fill-opacity="1" fill-rule="evenodd"/></g><g fill="#1b243f" fill-opacity="1"><g transform="translate(96.700853, 198.612407)"><g><path d="M 10.671875 0.421875 C 8.890625 0.421875 7.3125 0.113281 5.9375 -0.5 C 4.570312 -1.113281 3.492188 -1.992188 2.703125 -3.140625 C 1.921875 -4.296875 1.519531 -5.695312 1.5 -7.34375 L 6.1875 -7.34375 C 6.238281 -6.207031 6.648438 -5.25 7.421875 -4.46875 C 8.203125 -3.6875 9.273438 -3.296875 10.640625 -3.296875 C 11.828125 -3.296875 12.765625 -3.582031 13.453125 -4.15625 C 14.148438 -4.726562 14.5 -5.488281 14.5 -6.4375 C 14.5 -7.4375 14.191406 -8.210938 13.578125 -8.765625 C 12.960938 -9.316406 12.144531 -9.765625 11.125 -10.109375 C 10.101562 -10.460938 9.015625 -10.835938 7.859375 -11.234375 C 5.984375 -11.878906 4.550781 -12.710938 3.5625 -13.734375 C 2.582031 -14.753906 2.09375 -16.113281 2.09375 -17.8125 C 2.0625 -19.25 2.398438 -20.484375 3.109375 -21.515625 C 3.816406 -22.546875 4.785156 -23.34375 6.015625 -23.90625 C 7.242188 -24.476562 8.660156 -24.765625 10.265625 -24.765625 C 11.878906 -24.765625 13.304688 -24.472656 14.546875 -23.890625 C 15.796875 -23.316406 16.769531 -22.503906 17.46875 -21.453125 C 18.175781 -20.410156 18.554688 -19.171875 18.609375 -17.734375 L 13.84375 -17.734375 C 13.820312 -18.597656 13.488281 -19.359375 12.84375 -20.015625 C 12.207031 -20.679688 11.320312 -21.015625 10.1875 -21.015625 C 9.21875 -21.035156 8.398438 -20.796875 7.734375 -20.296875 C 7.078125 -19.796875 6.75 -19.070312 6.75 -18.125 C 6.75 -17.3125 7.003906 -16.664062 7.515625 -16.1875 C 8.023438 -15.71875 8.71875 -15.316406 9.59375 -14.984375 C 10.476562 -14.660156 11.488281 -14.316406 12.625 -13.953125 C 13.832031 -13.535156 14.929688 -13.046875 15.921875 -12.484375 C 16.921875 -11.929688 17.722656 -11.195312 18.328125 -10.28125 C 18.929688 -9.363281 19.234375 -8.1875 19.234375 -6.75 C 19.234375 -5.46875 18.90625 -4.28125 18.25 -3.1875 C 17.601562 -2.101562 16.640625 -1.226562 15.359375 -0.5625 C 14.085938 0.09375 12.523438 0.421875 10.671875 0.421875 Z M 10.671875 0.421875 "/></g></g></g><g fill="#1b243f" fill-opacity="1"><g transform="translate(122.854798, 198.612407)"><g><path d="M 2.359375 0 L 2.359375 -24.34375 L 6.8125 -24.34375 L 18.265625 -7.203125 L 18.265625 -24.34375 L 22.71875 -24.34375 L 22.71875 0 L 18.265625 0 L 6.8125 -17.109375 L 6.8125 0 Z M 2.359375 0 "/></g></g></g><g fill="#1b243f" fill-opacity="1"><g transform="translate(153.321176, 198.612407)"><g><path d="M 0.796875 0 L 9.703125 -24.34375 L 14.71875 -24.34375 L 23.609375 0 L 18.890625 0 L 16.9375 -5.640625 L 7.4375 -5.640625 L 5.453125 0 Z M 8.65625 -9.109375 L 15.71875 -9.109375 L 12.171875 -19.234375 Z M 8.65625 -9.109375 "/></g></g></g><g fill="#1b243f" fill-opacity="1"><g transform="translate(183.092001, 198.612407)"><g><path d="M 1.640625 0 L 1.640625 -3.40625 L 12.828125 -20.625 L 1.734375 -20.625 L 1.734375 -24.34375 L 17.984375 -24.34375 L 17.984375 -20.9375 L 6.71875 -3.71875 L 18.046875 -3.71875 L 18.046875 0 Z M 1.640625 0 "/></g></g></g><g fill="#1b243f" fill-opacity="1"><g transform="translate(208.167828, 198.612407)"><g><path d="M 1.640625 0 L 1.640625 -3.40625 L 12.828125 -20.625 L 1.734375 -20.625 L 1.734375 -24.34375 L 17.984375 -24.34375 L 17.984375 -20.9375 L 6.71875 -3.71875 L 18.046875 -3.71875 L 18.046875 0 Z M 1.640625 0 "/></g></g></g><g fill="#1b243f" fill-opacity="1"><g transform="translate(233.243655, 198.612407)"><g><path d="M 8.65625 0 L 8.65625 -8.65625 L 0.484375 -24.34375 L 5.53125 -24.34375 L 10.921875 -13.109375 L 16.28125 -24.34375 L 21.25 -24.34375 L 13.109375 -8.65625 L 13.109375 0 Z M 8.65625 0 "/></g></g></g><g fill="#1b243f" fill-opacity="1"><g transform="translate(260.364893, 198.612407)"><g><path d="M 7.578125 0.03125 L 0.90625 -24.34375 L 4.03125 -24.34375 L 9.28125 -3.4375 L 15.265625 -24.34375 L 18.5 -24.34375 L 24.3125 -3.4375 L 29.640625 -24.34375 L 32.765625 -24.34375 L 25.953125 0 L 22.609375 0 L 16.796875 -20.109375 L 10.859375 0 Z M 7.578125 0.03125 "/></g></g></g><g fill="#1b243f" fill-opacity="1"><g transform="translate(299.386595, 198.612407)"><g><path d="M 2.578125 0 L 2.578125 -24.34375 L 17.640625 -24.34375 L 17.640625 -21.953125 L 5.5 -21.953125 L 5.5 -13.453125 L 16.59375 -13.453125 L 16.59375 -11.09375 L 5.5 -11.09375 L 5.5 -2.40625 L 17.640625 -2.40625 L 17.640625 0 Z M 2.578125 0 "/></g></g></g><g fill="#1b243f" fill-opacity="1"><g transform="translate(324.392867, 198.612407)"><g><path d="M 2.578125 0 L 2.578125 -24.34375 L 11.125 -24.34375 C 12.84375 -24.34375 14.265625 -24.070312 15.390625 -23.53125 C 16.515625 -22.988281 17.351562 -22.242188 17.90625 -21.296875 C 18.46875 -20.359375 18.75 -19.3125 18.75 -18.15625 C 18.75 -16.582031 18.320312 -15.34375 17.46875 -14.4375 C 16.625 -13.53125 15.613281 -12.90625 14.4375 -12.5625 C 15.34375 -12.394531 16.164062 -12.03125 16.90625 -11.46875 C 17.644531 -10.914062 18.226562 -10.222656 18.65625 -9.390625 C 19.082031 -8.554688 19.296875 -7.640625 19.296875 -6.640625 C 19.296875 -5.410156 18.992188 -4.289062 18.390625 -3.28125 C 17.796875 -2.28125 16.90625 -1.484375 15.71875 -0.890625 C 14.539062 -0.296875 13.101562 0 11.40625 0 Z M 5.5 -13.703125 L 10.921875 -13.703125 C 12.472656 -13.703125 13.664062 -14.066406 14.5 -14.796875 C 15.332031 -15.523438 15.75 -16.539062 15.75 -17.84375 C 15.75 -19.070312 15.335938 -20.054688 14.515625 -20.796875 C 13.691406 -21.535156 12.457031 -21.90625 10.8125 -21.90625 L 5.5 -21.90625 Z M 5.5 -2.4375 L 11.09375 -2.4375 C 12.757812 -2.4375 14.046875 -2.820312 14.953125 -3.59375 C 15.859375 -4.375 16.3125 -5.460938 16.3125 -6.859375 C 16.3125 -8.222656 15.832031 -9.316406 14.875 -10.140625 C 13.925781 -10.960938 12.644531 -11.375 11.03125 -11.375 L 5.5 -11.375 Z M 5.5 -2.4375 "/></g></g></g></svg>