<?xml version="1.0" encoding="UTF-8"?>
<svg width="76px" height="45px" viewBox="0 0 76 45" version="1.1" xmlns="http://www.w3.org/2000/svg" xmlns:xlink="http://www.w3.org/1999/xlink">
    <title>E12C44B7-7CE3-4875-AD9B-746E42E19125@1x</title>
    <g id="Page-1" stroke="none" stroke-width="1" fill="none" fill-rule="evenodd">
        <g id="Hp" transform="translate(-962.000000, -4229.000000)" fill="#1B243F" fill-rule="nonzero">
            <g id="frameworks" transform="translate(315.960704, 4228.000000)">
                <g id="next" transform="translate(646.039296, 1.000000)">
                    <g id="EXT-+-Type-something">
                        <path d="M18.1937295,11.7475221 L32.6763002,11.7475221 L32.6763002,12.8569112 L19.5212985,12.8569112 L19.5212985,21.2065237 L31.8918276,21.2065237 L31.8918276,22.3159128 L19.5212985,22.3159128 L19.5212985,31.4829699 L32.8271603,31.4829699 L32.8271603,32.5923589 L18.1937295,32.5923589 L18.1937295,11.7475221 Z M33.9736973,11.7475221 L35.5124704,11.7475221 L42.3313474,20.9145792 L49.3010847,11.7475221 L58.7810634,0.103251532 L43.2063358,21.877996 L51.232094,32.5923589 L49.6329768,32.5923589 L42.3313474,22.8414129 L34.999546,32.5923589 L33.4306009,32.5923589 L41.5167026,21.877996 L33.9736973,11.7475221 Z M51.8053626,12.8569111 L51.8053626,11.7475221 L68.3094588,11.7475221 L68.3094588,12.8569112 L60.7061089,12.8569112 L60.7061089,32.5923589 L59.37854,32.5923589 L59.37854,12.8569112 L51.8053626,12.8569111 Z" id="EXT"></path>
                        <polygon id="Type-something" points="0.0754346601 11.7475221 1.73489589 11.7475221 24.6178952 44.7491113 15.1614459 32.5923589 1.46334769 13.3240224 1.40300364 32.5923589 0.0754346601 32.5923589"></polygon>
                    </g>
                    <path d="M67.5927624,31.2053867 C67.8584188,31.2053867 68.0521915,31.0442829 68.0521915,30.8360874 C68.0521915,30.6278918 67.8584188,30.466788 67.5927624,30.466788 C67.3302318,30.466788 67.1333333,30.6278918 67.1333333,30.8360874 C67.1333333,31.0442829 67.3302318,31.2053867 67.5927624,31.2053867 Z M68.8554109,30.233807 C68.8554109,30.84848 69.4148517,31.25 70.2305724,31.25 C71.0994244,31.25 71.6244861,30.8360874 71.6244861,30.1173166 L71.6244861,27.5867482 L70.9244037,27.5867482 L70.9244037,30.114838 C70.9244037,30.5138797 70.6712491,30.7270325 70.2243214,30.7270325 C69.8242746,30.7270325 69.5523675,30.5287508 69.5429915,30.233807 L68.8554109,30.233807 Z M72.5402185,30.2015864 C72.5902247,30.8410443 73.2621783,31.25 74.2622957,31.25 C75.3311715,31.25 76,30.8212163 76,30.1371448 C76,29.599306 75.6187052,29.3018838 74.6935967,29.1308658 L74.1966632,29.0342036 C73.6090939,28.9251487 73.3715664,28.7789161 73.3715664,28.5236287 C73.3715664,28.201421 73.7403594,27.9907469 74.2935495,27.9907469 C74.8186112,27.9907469 75.1811539,28.196464 75.2467865,28.526107 L75.9281164,28.526107 C75.8874866,27.9238268 75.218658,27.5 74.3029256,27.5 C73.3184352,27.5 72.6621076,27.9238268 72.6621076,28.5608064 C72.6621076,29.0862525 73.0340268,29.398546 73.8497475,29.5497357 L74.4310657,29.661269 C75.028011,29.7728025 75.2905416,29.9363848 75.2905416,30.2090219 C75.2905416,30.5262725 74.8779934,30.7567747 74.3154273,30.7567747 C73.7122313,30.7567747 73.2934321,30.5411436 73.2340502,30.2015864 L72.5402185,30.2015864 Z" id=".JS"></path>
                </g>
            </g>
        </g>
    </g>
</svg>