<svg xmlns="http://www.w3.org/2000/svg" viewBox="0 0 65 50">
  <path fill="#00DC82" d="M36.466 47h24.163a4.35 4.35 0 0 0 2.186-.59 4.383 4.383 0 0 0 1.6-1.61 4.423 4.423 0 0 0-.002-4.4L48.186 12.114a4.384 4.384 0 0 0-1.6-1.61 4.349 4.349 0 0 0-4.371 0 4.383 4.383 0 0 0-1.6 1.61l-4.15 7.238-8.112-14.153a4.388 4.388 0 0 0-1.6-1.61 4.352 4.352 0 0 0-4.373 0 4.387 4.387 0 0 0-1.6 1.61L.587 40.4a4.417 4.417 0 0 0 1.598 6.01 4.35 4.35 0 0 0 2.186.59H19.54c6.01 0 10.441-2.657 13.49-7.84l7.405-12.903 3.965-6.905 11.902 20.742H40.434L36.466 47zm-17.163-6.915H8.706L24.574 12.43l7.917 13.827L27.19 35.5c-2.025 3.363-4.326 4.588-7.898 4.588"/>
</svg>
