<?xml version="1.0" encoding="UTF-8"?>
<svg width="46px" height="46px" viewBox="0 0 46 46" version="1.1" xmlns="http://www.w3.org/2000/svg" xmlns:xlink="http://www.w3.org/1999/xlink">
    <title>python</title>
    <g id="Live-website" stroke="none" stroke-width="1" fill="none" fill-rule="evenodd">
        <g id="Tc-Overview" transform="translate(-758.000000, -2801.000000)" fill-rule="nonzero">
            <g id="django-copy" transform="translate(758.000000, 2801.000000)">
                <path d="M22.2386141,0 C10.8655355,0 11.5757438,5.11035056 11.5757438,5.11035056 L11.5884226,10.4046212 L22.4414749,10.4046212 L22.4414749,11.9942161 L7.27763084,11.9942161 C7.27763084,11.9942161 0,11.1390294 0,23.0294204 C0,34.9198089 6.35207849,34.4981506 6.35207849,34.4981506 L10.1430395,34.4981506 L10.1430395,28.9805484 C10.1430395,28.9805484 9.93869701,22.3988373 16.3936876,22.3988373 C22.8486774,22.3988373 27.1579883,22.3988373 27.1579883,22.3988373 C27.1579883,22.3988373 33.2057756,22.5001342 33.2057756,16.3426121 C33.2057756,10.1850917 33.2057756,6.1613224 33.2057756,6.1613224 C33.2057756,6.16132156 34.1239965,0 22.2386141,0 Z M16.2542208,3.5601671 C17.33402,3.5601671 18.2067559,4.46445312 18.2067559,5.58328789 C18.2067559,6.70212266 17.33402,7.60640868 16.2542208,7.60640868 C15.1744216,7.60640868 14.3016857,6.70212266 14.3016857,5.58328789 C14.3016857,4.46445312 15.1744216,3.5601671 16.2542208,3.5601671 Z" id="path8615" fill="#4283AF"></path>
                <path d="M23.7613864,46 C35.134468,46 34.4242565,40.8896499 34.4242565,40.8896499 L34.4115777,35.5953797 L23.5585257,35.5953797 L23.5585257,34.0057849 L38.7223693,34.0057849 C38.7223693,34.0057849 46,34.860969 46,22.9705774 C46,11.0801911 39.6479217,11.5018494 39.6479217,11.5018494 L35.8569607,11.5018494 L35.8569607,17.0194498 C35.8569607,17.0194498 36.0613065,23.6011604 29.6063128,23.6011604 C23.1513224,23.6011604 18.8420116,23.6011604 18.8420116,23.6011604 C18.8420116,23.6011604 12.7942244,23.4998635 12.7942244,29.6573893 C12.7942244,35.8149067 12.7942244,39.8386781 12.7942244,39.8386781 C12.7942244,39.8386781 11.8760035,46 23.7613864,46 Z M29.7457796,42.4398332 C28.66598,42.4398332 27.7932445,41.5355477 27.7932445,40.4167126 C27.7932445,39.2978775 28.66598,38.393592 29.7457796,38.393592 C30.8255792,38.393592 31.6983147,39.2978775 31.6983147,40.4167126 C31.6983147,41.5355477 30.8255792,42.4398332 29.7457796,42.4398332 Z" id="path8620" fill="#FFE166"></path>
            </g>
        </g>
    </g>
</svg>