<?xml version="1.0" encoding="UTF-8"?>
<svg width="52px" height="46px" viewBox="0 0 52 46" version="1.1" xmlns="http://www.w3.org/2000/svg" xmlns:xlink="http://www.w3.org/1999/xlink">
    <title>react</title>
    <g id="Live-website" stroke="none" stroke-width="1" fill="none" fill-rule="evenodd">
        <g id="Tc-Overview" transform="translate(-755.000000, -1604.000000)" fill="#61DAFB" fill-rule="nonzero">
            <g id="react" transform="translate(755.000000, 1604.000000)">
                <path d="M52,23.0052644 C52,19.5834287 47.6860987,16.3405814 41.0721565,14.3295949 C42.5984509,7.6333257 41.9200978,2.3057908 38.9311048,0.600137331 C38.2421525,0.200045777 37.4366082,0.0105287251 36.5568691,0.0105287251 L36.5568691,2.35843442 C37.0444354,2.35843442 37.4366082,2.45319295 37.7651855,2.63218128 C39.2066857,3.45342184 39.8320424,6.58045319 39.3444762,10.6024262 C39.2278842,11.5921263 39.0370974,12.6344701 38.8039136,13.6978714 C36.7264574,13.1924926 34.4582144,12.8029297 32.0733795,12.5502403 C30.6424786,10.6024262 29.1585813,8.83360037 27.6640848,7.28587778 C31.1194456,4.09567407 34.362821,2.3479057 36.5674684,2.3479057 L36.5674684,0 C36.5674684,0 36.5674684,0 36.5674684,0 C33.6526702,0 29.8369344,2.06363012 25.9788015,5.64339666 C22.1206686,2.08468757 18.3049327,0.0421149004 15.3901345,0.0421149004 L15.3901345,2.3900206 C17.5841826,2.3900206 20.8381574,4.12726024 24.2935181,7.2964065 C22.8096209,8.84412909 21.3257236,10.6024262 19.9160212,12.5502403 C17.520587,12.8029297 15.2523441,13.1924926 13.1748879,13.7084001 C12.9311048,12.6555276 12.7509172,11.6342412 12.623726,10.6550698 C12.1255605,6.63309682 12.740318,3.50606546 14.1712189,2.67429618 C14.4891969,2.48477913 14.9025683,2.40054932 15.3901345,2.40054932 L15.3901345,0.0526436255 C15.3901345,0.0526436255 15.3901345,0.0526436255 15.3901345,0.0526436255 C14.4997962,0.0526436255 13.6942519,0.242160678 12.9947004,0.642252232 C10.0163066,2.3479057 9.34855279,7.66491188 10.8854464,14.3401236 C4.29270281,16.3616388 0,19.5939574 0,23.0052644 C0,26.4271 4.31390135,29.6699474 10.9278435,31.6809339 C9.40154912,38.377203 10.0799022,43.7047379 13.0688952,45.4103914 C13.7578475,45.8104829 14.5633918,46 15.4537301,46 C18.3685283,46 22.1842642,43.9363699 26.0423971,40.3566033 C29.90053,43.9153124 33.7162658,45.9578851 36.631064,45.9578851 C37.5214024,45.9578851 38.3269466,45.768368 39.0264982,45.3682765 C42.004892,43.662623 42.6726457,38.3456168 41.1357521,31.6704051 C47.7072972,29.6594186 52,26.4165713 52,23.0052644 Z M38.1997554,15.9826047 C37.8075826,17.3408103 37.3200163,18.7411307 36.7688545,20.1414511 C36.3342845,19.2991531 35.8785161,18.4568551 35.3803506,17.6145571 C34.8927843,16.7722591 34.3734203,15.9510185 33.8540563,15.1508354 C35.3591521,15.3719387 36.8112515,15.6456855 38.1997554,15.9826047 Z M33.3452915,27.195697 C32.5185487,28.6170748 31.6706074,29.9647517 30.7908683,31.2176699 C29.2115777,31.3545434 27.6110885,31.4282444 26,31.4282444 C24.3995108,31.4282444 22.7990216,31.3545434 21.2303302,31.2281987 C20.3505911,29.9752804 19.4920506,28.6381323 18.6653078,27.2272831 C17.8597636,25.8480201 17.1284142,24.4476997 16.4606604,23.0368505 C17.1178149,21.6260014 17.8597636,20.2151522 18.6547085,18.8358892 C19.4814513,17.4145113 20.3293926,16.0668345 21.2091317,14.8139162 C22.7884223,14.6770428 24.3889115,14.6033417 26,14.6033417 C27.6004892,14.6033417 29.2009784,14.6770428 30.7696698,14.8033875 C31.6494089,16.0563058 32.5079494,17.3934539 33.3346922,18.804303 C34.1402364,20.183566 34.8715858,21.5838865 35.5393396,22.9947356 C34.8715858,24.4055848 34.1402364,25.816434 33.3452915,27.195697 Z M36.7688545,25.8269627 C37.3412148,27.2378119 37.8287811,28.648661 38.2315532,30.0173953 C36.8430493,30.3543145 35.3803506,30.6385901 33.8646555,30.8596933 C34.3840196,30.0489815 34.9033836,29.2172122 35.3909499,28.3643854 C35.8785161,27.5220874 36.3342845,26.6692607 36.7688545,25.8269627 Z M26.0211985,37.0611124 C25.0354668,36.0503548 24.049735,34.9237812 23.0746025,33.6919203 C24.0285365,33.7340352 25.003669,33.7656214 25.9894007,33.7656214 C26.9857318,33.7656214 27.9714635,33.744564 28.9359967,33.6919203 C27.9820628,34.9237812 26.996331,36.0503548 26.0211985,37.0611124 Z M18.1353445,30.8596933 C16.6302487,30.6385901 15.1781492,30.3648432 13.7896453,30.027924 C14.1818182,28.6697185 14.6693844,27.269398 15.2205463,25.8690776 C15.6551162,26.7113756 16.1108846,27.5536736 16.6090501,28.3959716 C17.1072157,29.2382696 17.6159804,30.0595102 18.1353445,30.8596933 Z M25.9682022,8.94941634 C26.953934,9.96017395 27.9396657,11.0867475 28.9147982,12.3186084 C27.9608642,12.2764935 26.9857318,12.2449073 26,12.2449073 C25.003669,12.2449073 24.0179372,12.2659648 23.053404,12.3186084 C24.007338,11.0867475 24.9930697,9.96017395 25.9682022,8.94941634 Z M18.1247452,15.1508354 C17.6053812,15.9615473 17.0860171,16.7933165 16.5984509,17.6461433 C16.1108846,18.4884413 15.6551162,19.3307393 15.2205463,20.1730373 C14.6481859,18.7621881 14.1606196,17.351339 13.7578475,15.9826047 C15.1463514,15.6562142 16.6090501,15.3719387 18.1247452,15.1508354 Z M8.53240929,28.3327993 C4.78026906,26.7429618 2.3530371,24.6582742 2.3530371,23.0052644 C2.3530371,21.3522545 4.78026906,19.2570382 8.53240929,17.6777295 C9.44394619,17.2881666 10.4402772,16.9407187 11.468406,16.6143282 C12.0725642,18.6779583 12.8675092,20.8258183 13.8532409,23.0263218 C12.8781084,25.2162966 12.0937627,27.3536278 11.5002038,29.4067292 C10.4508765,29.0803388 9.45454545,28.7223621 8.53240929,28.3327993 Z M14.2348145,43.3783474 C12.7933143,42.5571069 12.1679576,39.4300755 12.6555238,35.4081025 C12.7721158,34.4184024 12.9629026,33.3760586 13.1960864,32.3126574 C15.2735426,32.8180362 17.5417856,33.207599 19.9266205,33.4602884 C21.3575214,35.4081025 22.8414187,37.1769284 24.3359152,38.7246509 C20.8805544,41.9148547 17.637179,43.662623 15.4325316,43.662623 C14.9555646,43.6520943 14.5527925,43.5573358 14.2348145,43.3783474 Z M39.376274,35.3554589 C39.8744395,39.3774319 39.259682,42.5044633 37.8287811,43.3362325 C37.5108031,43.5257496 37.0974317,43.6099794 36.6098655,43.6099794 C34.4158174,43.6099794 31.1618426,41.8727398 27.7064819,38.7035935 C29.1903791,37.1558709 30.6742764,35.3975738 32.0839788,33.4497597 C34.479413,33.1970703 36.7476559,32.8075074 38.8251121,32.2915999 C39.0688952,33.3550011 39.259682,34.3762875 39.376274,35.3554589 Z M43.4569914,28.3327993 C42.5454545,28.7223621 41.5491235,29.06981 40.5209947,29.3962005 C39.9168365,27.3325704 39.1218916,25.1847105 38.1361598,22.9842069 C39.1112923,20.7942321 39.895638,18.6569009 40.4891969,16.6037995 C41.5385243,16.93019 42.5348553,17.2881666 43.4675907,17.6777295 C47.2197309,19.2675669 49.6469629,21.3522545 49.6469629,23.0052644 C49.6363636,24.6582742 47.2091317,26.7534905 43.4569914,28.3327993 Z" id="Shape"></path>
                <circle id="Oval" cx="26.5" cy="22.5" r="4.5"></circle>
            </g>
        </g>
    </g>
</svg>