<svg width="48" height="48" viewBox="0 0 48 48" fill="none" xmlns="http://www.w3.org/2000/svg">
<rect width="48" height="48" rx="24" fill="#006BFF"/>
<path d="M0 24C0 4.236 4.236 0 24 0C43.764 0 48 4.236 48 24C48 43.764 43.764 48 24 48C4.236 48 0 43.764 0 24Z" fill="#00A1E0"/>
<path d="M21.1488 16.1384C22.2453 15.0503 23.7719 14.3755 25.4602 14.3755C27.7046 14.3755 29.6628 15.5674 30.7055 17.3368C31.6117 16.9512 32.6149 16.7367 33.6701 16.7367C37.7181 16.7367 41 19.8895 41 23.7784C41 27.6678 37.7181 30.8206 33.6701 30.8206C33.1852 30.8209 32.7017 30.7749 32.2264 30.6836C31.3082 32.2435 29.5581 33.2976 27.5496 33.2976C26.7089 33.2976 25.9135 33.1126 25.2054 32.7838C24.2747 34.8691 22.1058 36.3312 19.5781 36.3312C16.9457 36.3312 14.7023 34.745 13.8412 32.5202C13.4649 32.5964 13.075 32.6361 12.6749 32.6361C9.54082 32.6361 7 30.1914 7 27.1752C7 25.154 8.14156 23.3891 9.83769 22.4449C9.48851 21.6796 9.29427 20.835 9.29427 19.9471C9.29427 16.4784 12.2511 13.6665 15.8981 13.6665C18.0393 13.6665 19.9423 14.6361 21.1488 16.1384Z" fill="white"/>
<path d="M11.9237 25.42C11.9024 25.4731 11.9315 25.4841 11.9382 25.4934C12.0021 25.5376 12.0671 25.5694 12.1325 25.605C12.4792 25.7803 12.8067 25.8314 13.1491 25.8314C13.8465 25.8314 14.2795 25.4781 14.2795 24.9092V24.8982C14.2795 24.3724 13.7908 24.1815 13.3322 24.0435L13.2726 24.0251C12.9268 23.918 12.6284 23.8258 12.6284 23.609V23.5975C12.6284 23.4121 12.8028 23.2755 13.0731 23.2755C13.3733 23.2755 13.7298 23.3705 13.9594 23.4914C13.9594 23.4914 14.0267 23.5329 14.0514 23.4706C14.0649 23.4374 14.1812 23.1394 14.1933 23.1072C14.2064 23.0721 14.1832 23.0462 14.1594 23.0324C13.8974 22.8806 13.5351 22.7769 13.1603 22.7769L13.0905 22.7773C12.4522 22.7773 12.0066 23.1445 12.0066 23.6708V23.6819C12.0066 24.2368 12.4982 24.4166 12.9588 24.542L13.0329 24.5638C13.3686 24.6621 13.6577 24.7465 13.6577 24.9716V24.9826C13.6577 25.1883 13.4698 25.3414 13.1666 25.3414C13.0489 25.3414 12.6735 25.3392 12.2682 25.0951C12.2192 25.0679 12.1907 25.048 12.1529 25.0264C12.133 25.0144 12.0832 24.9936 12.0614 25.0565L11.9237 25.42ZM22.1339 25.42C22.1125 25.4731 22.1416 25.4841 22.1484 25.4934C22.2123 25.5376 22.2772 25.5694 22.3426 25.605C22.6893 25.7803 23.0168 25.8314 23.3592 25.8314C24.0566 25.8314 24.4896 25.4781 24.4896 24.9092V24.8982C24.4896 24.3724 24.0009 24.1815 23.5423 24.0435L23.4827 24.0251C23.1369 23.918 22.8385 23.8258 22.8385 23.609V23.5975C22.8385 23.4121 23.0129 23.2755 23.2831 23.2755C23.5834 23.2755 23.9399 23.3705 24.1695 23.4914C24.1695 23.4914 24.2368 23.5329 24.2615 23.4706C24.2749 23.4374 24.3912 23.1394 24.4034 23.1072C24.4166 23.0721 24.3932 23.0462 24.3694 23.0324C24.1074 22.8806 23.7452 22.7769 23.3703 22.7769L23.3006 22.7773C22.6622 22.7773 22.2167 23.1445 22.2167 23.6708V23.6819C22.2167 24.2368 22.7082 24.4166 23.1689 24.542L23.243 24.5638C23.5786 24.6621 23.8683 24.7465 23.8683 24.9716V24.9826C23.8683 25.1883 23.6798 25.3414 23.3766 25.3414C23.259 25.3414 22.8836 25.3392 22.4782 25.0951C22.4293 25.0679 22.4003 25.0491 22.3635 25.0264C22.3508 25.0187 22.2918 24.9969 22.2714 25.0565L22.1339 25.42ZM29.1041 24.3059C29.1041 24.6275 29.041 24.8805 28.9171 25.0597C28.7947 25.2367 28.609 25.3231 28.3504 25.3231C28.0913 25.3231 27.9068 25.2371 27.7862 25.0597C27.664 24.8812 27.6022 24.6275 27.6022 24.3059C27.6022 23.9849 27.664 23.7321 27.7862 23.5549C27.9068 23.3797 28.0913 23.2943 28.3504 23.2943C28.609 23.2943 28.7947 23.3797 28.9175 23.5549C29.041 23.7321 29.1041 23.9848 29.1041 24.3059ZM29.6861 23.7099C29.629 23.5259 29.5399 23.3635 29.4214 23.2284C29.3026 23.0928 29.1526 22.9839 28.9742 22.9046C28.7965 22.8257 28.5863 22.7856 28.3504 22.7856C28.1142 22.7856 27.9039 22.8257 27.7261 22.9046C27.548 22.9839 27.3977 23.0928 27.2787 23.2284C27.1604 23.364 27.0713 23.5264 27.0137 23.7099C26.9571 23.893 26.9285 24.0932 26.9285 24.3059C26.9285 24.5185 26.9571 24.7193 27.0137 24.9019C27.0713 25.0854 27.1599 25.2479 27.2792 25.3835C27.3977 25.5191 27.5484 25.6274 27.7261 25.7045C27.9043 25.7816 28.1142 25.8206 28.3506 25.8206C28.5863 25.8206 28.796 25.7816 28.9742 25.7045C29.1521 25.6274 29.3026 25.5191 29.4214 25.3835C29.5399 25.2481 29.629 25.0858 29.6864 24.9019C29.7435 24.7188 29.772 24.5181 29.772 24.3059C29.772 24.0937 29.7435 23.893 29.6861 23.7099ZM34.467 25.2371C34.4475 25.1832 34.3929 25.2035 34.3929 25.2035C34.3081 25.2343 34.2179 25.263 34.122 25.2773C34.0248 25.2915 33.9175 25.2989 33.8029 25.2989C33.5211 25.2989 33.2972 25.2192 33.1369 25.0614C32.9762 24.9036 32.886 24.6487 32.8869 24.3035C32.888 23.9894 32.9674 23.7532 33.1104 23.5734C33.2523 23.3944 33.4683 23.3026 33.7564 23.3026C33.9967 23.3026 34.1798 23.3289 34.3716 23.3865C34.3716 23.3865 34.4176 23.4054 34.4393 23.3483C34.4901 23.2135 34.528 23.1171 34.5821 22.9691C34.5975 22.9271 34.5599 22.9091 34.5463 22.904C34.4708 22.8759 34.2925 22.8302 34.1578 22.8109C34.032 22.7924 33.8847 22.7827 33.721 22.7827C33.4765 22.7827 33.2584 22.8224 33.0721 22.9018C32.886 22.9806 32.7282 23.0895 32.6031 23.2251C32.4782 23.3607 32.3832 23.5231 32.3198 23.7066C32.257 23.8897 32.225 24.0909 32.225 24.3035C32.225 24.7635 32.3551 25.1352 32.6124 25.4072C32.8701 25.6803 33.257 25.8193 33.7618 25.8193C34.0601 25.8193 34.3661 25.7617 34.586 25.679C34.586 25.679 34.6281 25.6596 34.6098 25.6132L34.467 25.2371ZM35.4854 23.9979C35.5131 23.8194 35.565 23.6709 35.6447 23.5551C35.7656 23.3794 35.9494 23.283 36.2082 23.283C36.4669 23.283 36.6378 23.3798 36.7602 23.5551C36.8415 23.6709 36.8769 23.8259 36.891 23.9979H35.4854ZM37.4456 23.6054C37.3962 23.4278 37.2736 23.2483 37.1933 23.1662C37.0664 23.0361 36.9424 22.9453 36.8193 22.8945C36.6586 22.829 36.4657 22.7857 36.2547 22.7857C36.0085 22.7857 35.7853 22.8249 35.6042 22.9061C35.4226 22.9873 35.2701 23.098 35.1504 23.2359C35.0307 23.3733 34.9407 23.5371 34.8834 23.723C34.8258 23.908 34.7968 24.1096 34.7968 24.3221C34.7968 24.5386 34.8269 24.74 34.8863 24.9213C34.9464 25.1039 35.0423 25.265 35.1721 25.3982C35.3013 25.5325 35.4682 25.6378 35.6676 25.711C35.8657 25.7839 36.1065 25.8217 36.383 25.8213C36.9522 25.8193 37.2518 25.6985 37.3753 25.6335C37.3971 25.622 37.418 25.6017 37.3919 25.5437L37.2629 25.1998C37.2437 25.1486 37.1888 25.1676 37.1888 25.1676C37.048 25.2175 36.8474 25.3069 36.3801 25.306C36.0745 25.3056 35.8478 25.2199 35.7059 25.0856C35.56 24.9481 35.4888 24.746 35.4763 24.4609L37.447 24.4628C37.447 24.4628 37.4989 24.4619 37.5041 24.4138C37.5061 24.3937 37.5721 24.0283 37.4456 23.6054ZM19.7027 23.9979C19.7308 23.8194 19.7822 23.6709 19.8621 23.5551C19.9826 23.3794 20.1667 23.283 20.4253 23.283C20.684 23.283 20.855 23.3798 20.9779 23.5551C21.0588 23.6709 21.0942 23.8259 21.1082 23.9979H19.7027ZM21.6623 23.6054C21.6129 23.4278 21.4909 23.2483 21.4105 23.1662C21.2836 23.0361 21.1596 22.9453 21.0366 22.8945C20.8758 22.829 20.683 22.7857 20.4719 22.7857C20.2263 22.7857 20.0025 22.8249 19.8214 22.9061C19.6398 22.9873 19.4872 23.098 19.3676 23.2359C19.248 23.3733 19.1579 23.5371 19.1007 23.723C19.0436 23.908 19.0141 24.1096 19.0141 24.3221C19.0141 24.5386 19.0441 24.74 19.1037 24.9213C19.1637 25.1039 19.2596 25.265 19.3894 25.3982C19.5187 25.5325 19.6853 25.6378 19.8849 25.711C20.083 25.7839 20.3237 25.8217 20.6002 25.8213C21.1693 25.8193 21.4691 25.6985 21.5926 25.6335C21.6144 25.622 21.6353 25.6017 21.6091 25.5437L21.4808 25.1998C21.4609 25.1486 21.4062 25.1676 21.4062 25.1676C21.2653 25.2175 21.0652 25.3069 20.5969 25.306C20.2918 25.3056 20.0651 25.2199 19.9232 25.0856C19.7774 24.9481 19.7062 24.746 19.6936 24.4609L21.6643 24.4628C21.6643 24.4628 21.7161 24.4619 21.7215 24.4138C21.7233 24.3937 21.7892 24.0283 21.6623 23.6054ZM15.443 25.2268C15.366 25.1683 15.3553 25.1536 15.3292 25.1156C15.2904 25.058 15.2706 24.9759 15.2706 24.8717C15.2706 24.7065 15.3277 24.588 15.4464 24.5081C15.445 24.5088 15.6159 24.3676 16.0179 24.3726C16.3002 24.3762 16.5526 24.416 16.5526 24.416V25.2693H16.553C16.553 25.2693 16.3027 25.3205 16.0208 25.3367C15.6198 25.3598 15.4415 25.2263 15.443 25.2268ZM16.2271 23.9081C16.1472 23.9025 16.0435 23.8993 15.9195 23.8993C15.7505 23.8993 15.5873 23.9196 15.4342 23.9588C15.2802 23.998 15.1417 24.0593 15.0226 24.1405C14.9036 24.2215 14.8058 24.3272 14.7368 24.4501C14.6671 24.5738 14.6317 24.7195 14.6317 24.8827C14.6317 25.0487 14.6617 25.1931 14.7218 25.3112C14.7819 25.4297 14.8686 25.5286 14.979 25.6046C15.0884 25.6808 15.2236 25.7365 15.3805 25.7701C15.535 25.8038 15.7103 25.8209 15.9021 25.8209C16.1041 25.8209 16.3055 25.8053 16.5007 25.7734C16.694 25.7421 16.9313 25.6963 16.9972 25.6821C17.0433 25.6715 17.0894 25.6602 17.1352 25.6484C17.1841 25.6369 17.1803 25.5871 17.1803 25.5871L17.1793 23.8707C17.1793 23.4943 17.0737 23.2152 16.8659 23.0423C16.6591 22.8698 16.3545 22.7825 15.9607 22.7825C15.813 22.7825 15.5752 22.802 15.4328 22.8291C15.4328 22.8291 15.0022 22.9085 14.8249 23.0404C14.8249 23.0404 14.7862 23.0635 14.8075 23.1152L14.947 23.4722C14.9644 23.5183 15.0114 23.5026 15.0114 23.5026C15.0114 23.5026 15.0264 23.4971 15.0439 23.4874C15.4232 23.2909 15.9026 23.2969 15.9026 23.2969C16.1157 23.2969 16.2795 23.3375 16.3898 23.4182C16.4974 23.4966 16.5521 23.6151 16.5521 23.8651V23.9445C16.3826 23.9215 16.2271 23.9081 16.2271 23.9081ZM32.1219 22.941C32.1369 22.8985 32.1056 22.8783 32.0924 22.8737C32.0591 22.8612 31.8914 22.8275 31.7622 22.8197C31.5147 22.8054 31.3771 22.8451 31.254 22.8976C31.132 22.9502 30.9965 23.0351 30.9208 23.1315V22.9032C30.9208 22.8713 30.897 22.846 30.8641 22.846H30.3589C30.326 22.846 30.3024 22.8713 30.3024 22.9032V25.7026C30.3024 25.7339 30.3294 25.7598 30.3623 25.7598H30.8802C30.8961 25.7598 30.9113 25.7537 30.9224 25.7429C30.9335 25.7321 30.9398 25.7177 30.9396 25.7026V24.3041C30.9396 24.1163 30.9616 23.9291 31.0051 23.8114C31.0477 23.6952 31.106 23.602 31.1776 23.5351C31.2497 23.4687 31.3315 23.4221 31.4213 23.3958C31.5126 23.3691 31.6139 23.3603 31.6856 23.3603C31.7887 23.3603 31.902 23.3857 31.902 23.3857C31.9399 23.3898 31.9612 23.3677 31.9737 23.3349C32.0077 23.2491 32.1035 22.9922 32.1219 22.941Z" fill="#00A1E0"/>
<path d="M27.2616 21.6428C27.1988 21.6243 27.1414 21.6118 27.0669 21.5985C26.9914 21.5856 26.9014 21.5791 26.7992 21.5791C26.4426 21.5791 26.1618 21.675 25.9646 21.8641C25.7685 22.0524 25.6352 22.3388 25.5684 22.7157L25.5441 22.8425H25.0967C25.0967 22.8425 25.0425 22.8407 25.0307 22.897L24.9577 23.2876C24.9523 23.3246 24.9693 23.3481 25.0217 23.3481H25.4571L25.0153 25.6968C24.9809 25.8859 24.9412 26.0413 24.897 26.1594C24.8539 26.2758 24.812 26.3628 24.7596 26.4265C24.7093 26.4876 24.6617 26.5327 24.5794 26.559C24.5117 26.5806 24.433 26.5907 24.3473 26.5907C24.2999 26.5907 24.2365 26.5834 24.1896 26.5741C24.1431 26.5653 24.1184 26.5558 24.083 26.5413C24.083 26.5413 24.032 26.523 24.0116 26.5713C23.9957 26.6115 23.8795 26.9154 23.8654 26.9528C23.8519 26.9901 23.8713 27.0193 23.896 27.0281C23.9541 27.0473 23.9972 27.0603 24.0762 27.0782C24.1857 27.1028 24.2782 27.1041 24.3648 27.1041C24.5459 27.1041 24.7116 27.0797 24.8487 27.0326C24.9863 26.9851 25.1062 26.9025 25.2127 26.7909C25.3277 26.67 25.3997 26.5437 25.4686 26.3708C25.5369 26.2 25.5956 25.9878 25.642 25.7406L26.0861 23.3481H26.735C26.735 23.3481 26.7899 23.3499 26.801 23.2932L26.8747 22.903C26.8794 22.8656 26.8629 22.8425 26.8101 22.8425H26.1801C26.1835 22.8292 26.2121 22.6179 26.2842 22.4191C26.3152 22.3347 26.3733 22.266 26.4222 22.2189C26.4707 22.1728 26.5263 22.14 26.5875 22.1211C26.6498 22.1017 26.7212 22.0925 26.7992 22.0925C26.8581 22.0925 26.9168 22.099 26.9608 22.1077C27.0218 22.1202 27.0456 22.1267 27.0617 22.1313C27.126 22.1497 27.1346 22.1317 27.1473 22.1022L27.2981 21.7083C27.3135 21.6658 27.2752 21.6478 27.2616 21.6428ZM18.4577 25.702C18.4577 25.7333 18.434 25.7588 18.4011 25.7588H17.8785C17.8455 25.7588 17.8223 25.7333 17.8223 25.702V21.6963C17.8223 21.6649 17.8455 21.6395 17.8785 21.6395H18.4011C18.434 21.6395 18.4577 21.6649 18.4577 21.6963V25.702Z" fill="#00A1E0"/>
</svg>
