<svg width="48" height="48" viewBox="0 0 48 48" fill="none" xmlns="http://www.w3.org/2000/svg">
<path d="M36.1873 1.03238C33.4803 0.407622 29.0305 0 24 0C18.9695 0 14.5197 0.407622 11.8127 1.03238C6.41533 2.16497 2.16497 6.41533 1.03238 11.8127C0.407622 14.5197 0 18.9695 0 24C0 29.0305 0.407622 33.4803 1.03238 36.1873C2.16497 41.5847 6.41533 45.835 11.8127 46.9676C14.5197 47.5924 18.9695 48 24 48C29.0305 48 33.4803 47.5924 36.1873 46.9676C41.5847 45.835 45.835 41.5847 46.9676 36.1873C47.5924 33.4803 48 29.0305 48 24C48 18.9695 47.5924 14.5197 46.9676 11.8127C45.835 6.41533 41.5847 2.16497 36.1873 1.03238Z" fill="white"/>
<g clip-path="url(#clip0_747_12514)">
<path d="M34.1829 14.7766C34.1757 14.7166 34.1496 14.6605 34.1083 14.6165C34.067 14.5724 34.0127 14.5427 33.9533 14.5317L31.658 14.4935C31.658 14.4935 29.8676 12.7567 29.6993 12.5807C29.603 12.5182 29.4938 12.4782 29.3799 12.4636C29.266 12.449 29.1503 12.4603 29.0413 12.4965L28.1461 12.7796C28.0349 12.4145 27.8888 12.061 27.71 11.7238C27.4899 11.1875 27.1192 10.7265 26.6425 10.3965C26.1659 10.0665 25.6039 9.88177 25.0245 9.86454H24.772L24.7031 9.76508C24.4665 9.50712 24.1757 9.30474 23.8516 9.17246C23.5275 9.04018 23.1782 8.98127 22.8286 8.99997C21.3749 9.03822 19.9288 10.0941 18.7582 11.9533C17.9401 13.2453 17.3838 14.6855 17.1209 16.192L14.267 17.0795C13.4254 17.3473 13.3948 17.3703 13.2877 18.1583C13.2035 18.7628 11 35.7789 11 35.7789L29.4698 38.977L37.4728 37.003L34.1829 14.7766ZM27.2357 13.0627L25.8049 13.5065C25.811 12.605 25.6608 11.7094 25.3611 10.8592C26.4705 11.0658 27.0061 12.3129 27.2357 13.0627ZM24.8409 13.8278L21.7804 14.7842C22.0488 13.6716 22.5728 12.6369 23.3106 11.762C23.6048 11.4388 23.9614 11.1786 24.3588 10.9969C24.7124 11.8894 24.8766 12.8456 24.8409 13.8049V13.8278ZM22.8592 10.0023C23.1676 9.97749 23.4752 10.0584 23.7314 10.2318C23.3107 10.458 22.9306 10.7528 22.6067 11.104C21.626 12.2508 20.9661 13.6366 20.694 15.1209L18.1614 15.886C18.6511 13.5371 20.6174 10.0329 22.8592 9.97166V10.0023Z" fill="#95BF47"/>
<path d="M33.9538 14.5316L31.6584 14.4934C31.6584 14.4934 29.8681 12.7566 29.6998 12.5806C29.6297 12.5168 29.5414 12.4766 29.4473 12.4658V38.9999L37.4503 37.0106L34.1833 14.7765C34.1774 14.7161 34.1516 14.6593 34.1101 14.615C34.0686 14.5708 34.0137 14.5414 33.9538 14.5316V14.5316Z" fill="#5E8E3E"/>
<path d="M25.0313 18.648L24.1055 22.1293C23.3793 21.8281 22.5953 21.6922 21.8101 21.7314C20.0121 21.8462 19.9892 22.9862 20.0045 23.2616C20.1039 24.7918 24.1973 25.1514 24.4268 28.801C24.6105 31.6625 22.8966 33.6289 20.4559 33.7819C19.6263 33.8615 18.7892 33.7665 17.9985 33.5029C17.2078 33.2394 16.4812 32.8131 15.8652 32.2517L16.4926 29.5967C16.4926 29.5967 18.1147 30.8209 19.423 30.7444C19.5801 30.7417 19.7351 30.707 19.8783 30.6423C20.0215 30.5777 20.1501 30.4845 20.2561 30.3685C20.3621 30.2525 20.4433 30.1161 20.4948 29.9676C20.5462 29.8191 20.5668 29.6617 20.5554 29.5049C20.4253 27.4774 17.0971 27.5998 16.8828 24.2639C16.7069 21.456 18.5508 18.6174 22.6135 18.3573C23.4311 18.2542 24.2614 18.3541 25.0313 18.648V18.648Z" fill="white"/>
</g>
<defs>
<clipPath id="clip0_747_12514">
<rect width="26.4728" height="30" fill="white" transform="translate(11 9)"/>
</clipPath>
</defs>
</svg>
