<svg width="1512" height="816" fill="none" xmlns="http://www.w3.org/2000/svg"><path d="M-944.706 966.925c16.108 90.085 61.372 230.125 126.52 382.475 65.148 152.34 135.139 281.82 189.146 355.69 104.25 148.77 288.211 222.36 466.582 186.65 90.197-16.19 230.44-61.56 383.019-126.81 152.578-65.25 282.263-135.31 356.278-189.34 149.036-104.3 222.907-288.15 187.361-466.29-16.108-90.09-61.372-230.133-126.52-382.479-65.149-152.345-135.139-281.816-189.146-355.694C344.283 222.364 160.323 148.774-18.048 184.479c-90.197 16.191-230.44 61.562-383.019 126.81-152.578 65.248-282.263 135.307-356.278 189.339-149.036 104.305-222.908 288.153-187.361 466.297z" fill="url(#paint0_radial_2424_20764)"/><path d="M-376.459 1150.48c16.108 90.08 61.372 230.13 126.52 382.47 65.148 152.35 135.139 281.82 189.146 355.7C43.457 2037.41 227.418 2111 405.789 2075.3c90.197-16.2 230.44-61.57 383.019-126.81 152.578-65.25 282.262-135.31 356.282-189.34 149.03-104.31 222.9-288.16 187.36-466.3-16.11-90.08-61.38-230.13-126.52-382.475-65.15-152.346-135.14-281.817-189.15-355.694-104.249-148.764-288.21-222.354-466.581-186.648-90.197 16.191-230.44 61.562-383.019 126.81C14.602 560.09-115.083 630.15-189.098 684.182c-149.036 104.305-222.907 288.152-187.361 466.298z" fill="url(#paint1_radial_2424_20764)"/><path d="M228.635 1344.73c16.108 90.08 61.372 230.13 126.52 382.47 65.148 152.35 135.139 281.82 189.146 355.7 104.25 148.76 288.211 222.35 466.579 186.65 90.2-16.19 230.44-61.56 383.02-126.81 152.58-65.25 282.27-135.31 356.28-189.34 149.04-104.31 222.91-288.15 187.36-466.3-16.11-90.08-61.37-230.13-126.52-382.47-65.15-152.349-135.14-281.82-189.15-355.697-104.25-148.764-288.21-222.354-466.58-186.648-90.19 16.191-230.437 61.562-383.016 126.81-152.579 65.247-282.264 135.307-356.279 189.339-149.036 104.305-222.907 288.156-187.36 466.296z" fill="url(#paint2_radial_2424_20764)"/><defs><radialGradient id="paint0_radial_2424_20764" cx="0" cy="0" r="1" gradientUnits="userSpaceOnUse" gradientTransform="matrix(-2994.24485 -1844.9545 2272.0836 -3687.44845 2440.55 2221.5)"><stop offset=".531" stop-color="#02141C"/><stop offset=".776" stop-color="#032330"/><stop offset="1" stop-color="#073F56"/></radialGradient><radialGradient id="paint1_radial_2424_20764" cx="0" cy="0" r="1" gradientUnits="userSpaceOnUse" gradientTransform="matrix(-2994.24485 -1844.9545 2272.0836 -3687.44845 3008.8 2405.05)"><stop offset=".531" stop-color="#02141C"/><stop offset=".776" stop-color="#032330"/><stop offset="1" stop-color="#073F56"/></radialGradient><radialGradient id="paint2_radial_2424_20764" cx="0" cy="0" r="1" gradientUnits="userSpaceOnUse" gradientTransform="matrix(-2994.24485 -1844.9545 2272.0836 -3687.44845 3613.89 2599.3)"><stop offset=".531" stop-color="#02141C"/><stop offset=".776" stop-color="#032330"/><stop offset="1" stop-color="#073F56"/></radialGradient></defs></svg>